<mxfile host="65bd71144e">
    <diagram id="dOFuA4Ox6V-rKKHwKf4m" name="Page-1">
        <mxGraphModel dx="1360" dy="1420" grid="1" gridSize="10" guides="1" tooltips="1" connect="1" arrows="1" fold="1" page="1" pageScale="1" pageWidth="850" pageHeight="1100" math="0" shadow="0">
            <root>
                <mxCell id="0"/>
                <mxCell id="1" parent="0"/>
                <mxCell id="2" value="General Idea&lt;br&gt;Why is this important" style="rounded=1;whiteSpace=wrap;html=1;" vertex="1" parent="1">
                    <mxGeometry x="170" y="70" width="120" height="60" as="geometry"/>
                </mxCell>
                <mxCell id="3" value="1 min" style="whiteSpace=wrap;html=1;aspect=fixed;" vertex="1" parent="1">
                    <mxGeometry x="300" y="70" width="60" height="60" as="geometry"/>
                </mxCell>
                <mxCell id="6" value="Our Approach&lt;br&gt;How does this translate into a computer?&lt;br&gt;Why did we choose this?" style="rounded=1;whiteSpace=wrap;html=1;" vertex="1" parent="1">
                    <mxGeometry x="170" y="150" width="120" height="100" as="geometry"/>
                </mxCell>
                <mxCell id="7" value="1 min" style="whiteSpace=wrap;html=1;aspect=fixed;" vertex="1" parent="1">
                    <mxGeometry x="300" y="170" width="60" height="60" as="geometry"/>
                </mxCell>
                <mxCell id="8" value="Implementation Decisions" style="rounded=1;whiteSpace=wrap;html=1;" vertex="1" parent="1">
                    <mxGeometry x="170" y="430" width="120" height="60" as="geometry"/>
                </mxCell>
                <mxCell id="9" value="2 mins" style="whiteSpace=wrap;html=1;aspect=fixed;" vertex="1" parent="1">
                    <mxGeometry x="300" y="430" width="60" height="60" as="geometry"/>
                </mxCell>
                <mxCell id="10" value="How did we gather data?" style="rounded=1;whiteSpace=wrap;html=1;" vertex="1" parent="1">
                    <mxGeometry x="170" y="270" width="120" height="60" as="geometry"/>
                </mxCell>
                <mxCell id="11" value="1 min" style="whiteSpace=wrap;html=1;aspect=fixed;" vertex="1" parent="1">
                    <mxGeometry x="300" y="270" width="60" height="60" as="geometry"/>
                </mxCell>
                <mxCell id="13" value="Assumptions" style="rounded=1;whiteSpace=wrap;html=1;" vertex="1" parent="1">
                    <mxGeometry x="170" y="350" width="120" height="60" as="geometry"/>
                </mxCell>
                <mxCell id="14" value="1 minutes" style="whiteSpace=wrap;html=1;aspect=fixed;" vertex="1" parent="1">
                    <mxGeometry x="300" y="350" width="60" height="60" as="geometry"/>
                </mxCell>
                <mxCell id="15" value="Results and Drawbacks to our approach" style="rounded=1;whiteSpace=wrap;html=1;" vertex="1" parent="1">
                    <mxGeometry x="170" y="510" width="120" height="60" as="geometry"/>
                </mxCell>
                <mxCell id="16" value="2 minutes" style="whiteSpace=wrap;html=1;aspect=fixed;" vertex="1" parent="1">
                    <mxGeometry x="300" y="510" width="50" height="50" as="geometry"/>
                </mxCell>
                <mxCell id="17" value="Future Imporovements" style="rounded=1;whiteSpace=wrap;html=1;" vertex="1" parent="1">
                    <mxGeometry x="170" y="590" width="120" height="60" as="geometry"/>
                </mxCell>
                <mxCell id="18" value="1 minutes" style="whiteSpace=wrap;html=1;aspect=fixed;" vertex="1" parent="1">
                    <mxGeometry x="300" y="590" width="60" height="60" as="geometry"/>
                </mxCell>
                <mxCell id="19" value="Questions" style="rounded=0;whiteSpace=wrap;html=1;" vertex="1" parent="1">
                    <mxGeometry x="170" y="660" width="120" height="60" as="geometry"/>
                </mxCell>
                <mxCell id="20" value="" style="whiteSpace=wrap;html=1;aspect=fixed;" vertex="1" parent="1">
                    <mxGeometry x="300" y="660" width="60" height="60" as="geometry"/>
                </mxCell>
            </root>
        </mxGraphModel>
    </diagram>
</mxfile>